<svg width="1000" height="302" viewBox="0 0 1000 302" fill="none" xmlns="http://www.w3.org/2000/svg">
<path d="M226.047 152.021V183.082C226.047 183.713 225.978 184.321 225.864 184.918C225.737 185.515 225.565 186.077 225.336 186.628C225.106 187.167 224.819 187.683 224.498 188.165C224.165 188.659 223.798 189.106 223.385 189.519C222.972 189.932 222.525 190.299 222.031 190.632C221.549 190.954 221.033 191.24 220.494 191.47C219.943 191.699 219.381 191.871 218.784 191.998C218.187 192.112 217.579 192.181 216.948 192.181H209.983V231.194L198.646 238.94L175.996 254.43L164.659 262.176L119.335 293.157L74.0105 262.176L62.6737 254.43L40.0231 238.94L28.6863 231.194V192.181H21.7213C21.0902 192.181 20.4821 192.112 19.8854 191.998C19.2887 191.871 18.7265 191.699 18.1757 191.47C17.6364 191.24 17.1201 190.954 16.6381 190.632C16.1447 190.299 15.6972 189.932 15.2842 189.519C14.8711 189.106 14.5039 188.659 14.1711 188.165C13.8498 187.683 13.563 187.167 13.3335 186.628C13.104 186.077 12.9319 185.515 12.8057 184.918C12.6909 184.321 12.6221 183.713 12.6221 183.082V152.021L50.4878 183.002V213.983L119.335 261.028L188.181 213.983V183.002L226.047 152.021Z" fill="#143D30"/>
<path d="M238.669 123.334C238.669 127.695 238.439 131.986 237.969 136.22C232.748 139.387 227.39 142.336 221.916 145.079C221.308 145.388 220.7 145.687 220.092 145.985C187.608 152.95 153.896 156.61 119.334 156.61C84.7734 156.61 51.0614 152.95 18.5772 145.985C17.969 145.687 17.3609 145.388 16.7527 145.079C11.2794 142.336 5.92083 139.387 0.699943 136.22C0.22949 131.986 0 127.695 0 123.334C0 122.164 0.0114668 121.005 0.0458902 119.846C4.36029 122.371 8.75502 124.746 13.2301 126.995C45.152 143.013 81.1933 152.021 119.334 152.021C157.476 152.021 193.517 143.013 225.439 126.995C229.914 124.746 234.309 122.371 238.623 119.846C238.657 121.005 238.669 122.164 238.669 123.334Z" fill="#F05A28"/>
<path d="M119.334 156.61C153.896 156.61 187.608 152.95 220.092 145.985C189.673 160.879 155.479 169.232 119.334 169.232C83.1899 169.232 48.996 160.879 18.5771 145.985C51.0614 152.95 84.7734 156.61 119.334 156.61Z" fill="#143D30"/>
<path d="M226.047 116.037C226.047 116.22 226.047 116.404 226.036 116.587C195.101 135.956 158.52 147.144 119.335 147.144C80.1493 147.144 43.5687 135.956 12.6335 116.587C12.6221 116.404 12.6221 116.22 12.6221 116.037C35.1809 119.64 58.1069 122.13 81.3541 123.415C86.3226 123.702 91.3025 123.92 96.2939 124.092H96.3398C103.97 124.356 111.635 124.482 119.335 124.482C127.034 124.482 134.699 124.356 142.329 124.092H142.375C147.367 123.92 152.347 123.702 157.315 123.415C180.562 122.13 203.488 119.64 226.047 116.037Z" fill="#143D30"/>
<path d="M96.2934 124.092C91.302 123.92 86.3221 123.702 81.3537 123.415L72.5068 44.9523C74.0215 44.6196 75.5476 44.2983 77.0851 44L96.2934 124.092Z" fill="#143D30"/>
<path d="M166.162 44.9524L157.315 123.415C152.346 123.702 147.366 123.92 142.375 124.092L161.583 44C163.121 44.2983 164.647 44.6196 166.162 44.9524Z" fill="#143D30"/>
<path d="M154.733 9.33563L154.148 14.6942L151.176 42.1985L142.329 124.092C134.699 124.356 127.034 124.482 119.334 124.482C111.635 124.482 103.97 124.356 96.3395 124.092L87.4926 42.1985L84.5207 14.6942L83.9355 9.33563C95.1232 5.87034 107.011 4 119.334 4C131.658 4 143.545 5.87034 154.733 9.33563Z" fill="#F05A28"/>
<path d="M81.3541 123.415C58.1069 122.13 35.1809 119.64 12.6221 116.037V115.589C12.6221 95.2105 18.3364 76.1629 28.2503 59.9724C38.6117 43.0361 53.563 29.2094 71.3828 20.2364L77.0856 44C75.5481 44.2983 74.022 44.6196 72.5073 44.9524L81.3541 123.415Z" fill="#F05A28"/>
<path d="M226.047 115.589V116.037C203.488 119.64 180.562 122.13 157.314 123.415L166.161 44.9524C164.647 44.6196 163.121 44.2983 161.583 44L167.274 20.2364H167.286C185.106 29.2094 200.057 43.0361 210.418 59.9724C220.332 76.1629 226.047 95.2105 226.047 115.589Z" fill="#F05A28"/>
<path d="M291.832 248.322V192.942H316.029V250.708C316.029 270.917 322.633 277.901 334.609 277.901C346.643 277.901 353.575 270.917 353.575 250.708V192.942H376.901V248.322C376.901 282.973 362.299 298.048 334.609 298.048C306.919 298.048 291.832 282.973 291.832 248.322Z" fill="#F05A28"/>
<path d="M401.638 192.942H426.434L454.359 244.271L464.945 266.945H465.602C464.462 256.028 462.51 241.569 462.51 229.403V192.942H485.567V296.147H460.77L432.845 244.688L422.26 222.145H421.602C422.743 233.529 424.694 247.354 424.694 259.52V296.147H401.638V192.942Z" fill="#F05A28"/>
<path d="M510.844 192.942H535.04V296.147H510.844V192.942Z" fill="#F05A28"/>
<path d="M546.461 192.942H572.069L584.972 241.035C588.158 252.324 590.301 262.738 593.546 274.13H594.203C597.449 262.738 599.728 252.324 602.78 241.035L615.41 192.942H640.148L607.869 296.147H578.801L546.461 192.942Z" fill="#F05A28"/>
<path d="M651.578 192.942H718.64V212.511H675.775V233.234H712.265V252.802H675.775V276.58H720.282V296.147H651.578V192.942Z" fill="#F05A28"/>
<path d="M775.692 252.857L792.427 237.928L826.586 296.148H799.508L775.692 252.857ZM778.147 240.483C790.874 240.483 797.71 235.23 797.71 225.081C797.71 214.875 790.874 211.468 778.147 211.468H765.769V240.483H778.147ZM741.571 192.942H780.116C802.819 192.942 821.424 200.543 821.424 225.081C821.424 248.799 802.819 259.007 780.116 259.007H765.769V296.148H741.571V192.942Z" fill="#F05A28"/>
<path d="M833.022 283.127L846.918 267.118C854.53 273.506 864.402 277.901 873.208 277.901C883.309 277.901 888.253 274.067 888.253 267.942C888.253 261.445 882.168 259.359 872.818 255.652L858.91 249.934C847.82 245.584 837.31 236.799 837.31 221.803C837.31 204.699 853.154 191.042 875.432 191.042C887.757 191.042 900.645 195.727 909.861 204.568L897.647 219.273C890.594 214.056 883.892 211.189 875.432 211.189C867.089 211.189 861.78 214.539 861.78 220.442C861.78 226.772 868.779 229.072 878.122 232.659L891.759 237.985C904.83 243.08 912.99 251.473 912.99 266.06C912.99 283.198 898.171 298.048 872.668 298.048C858.739 298.048 843.94 292.963 833.022 283.127Z" fill="#F05A28"/>
<path d="M931.244 192.942H998.306V212.511H955.441V233.234H991.931V252.802H955.441V276.58H999.948V296.147H931.244V192.942Z" fill="#F05A28"/>
<path d="M292.02 132.398C292.02 96.4191 317.936 75.5527 347.793 75.5527C363.066 75.5527 375.372 82.1494 383.329 89.6285L369.247 105.353C363.318 100.284 356.943 96.722 348.391 96.722C332.188 96.722 319.393 109.833 319.393 131.576C319.393 153.866 330.695 166.822 347.966 166.822C357.667 166.822 365.302 162.436 371.08 156.683L385.161 172.075C375.351 182.549 362.297 187.99 347.005 187.99C317.04 187.99 292.02 168.925 292.02 132.398Z" fill="#143D30"/>
<path d="M402.888 103.445H429.537V185.992H402.888V103.445ZM400.82 78.5852C400.82 71.0866 407.306 65.8003 416.244 65.8003C425.184 65.8003 431.669 71.0866 431.669 78.5852C431.669 86.0263 425.184 91.3712 416.244 91.3712C407.306 91.3712 400.82 86.0263 400.82 78.5852Z" fill="#143D30"/>
<path d="M441.888 77.5495H470.157L484.399 128.084C487.919 139.945 490.286 150.889 493.868 162.858H494.593C498.176 150.889 500.692 139.945 504.061 128.084L518.004 77.5495H545.314L509.678 185.992H477.588L441.888 77.5495Z" fill="#143D30"/>
<path d="M559.924 77.5491H586.636V185.992H559.924V77.5491Z" fill="#143D30"/>
<path d="M616.485 77.5495H643.198V165.431H689.837V185.992H616.485V77.5495Z" fill="#143D30"/>
<path d="M725.186 185.978H704.532V64.3488L725.186 55.1693V185.978Z" fill="#143D30"/>
<path d="M730.924 185.978H751.578V64.3488L730.924 55.1693V185.978Z" fill="#143D30"/>
<path d="M806.082 185.978H785.428V52.6128L806.082 42.5474V185.978Z" fill="#143D30"/>
<path d="M812.393 185.978H833.047V52.6128L812.393 42.5474V185.978Z" fill="#143D30"/>
<path d="M836.489 185.98H854.848V145.817L836.489 137.787V185.98Z" fill="#143D30"/>
<path d="M873.207 185.978H901.893V80.4131L873.207 70.0861V185.978Z" fill="#143D30"/>
<path d="M905.336 185.978H940.907V49.432C936.317 47.1371 923.256 41.3999 923.256 41.3999L905.336 49.432V185.978Z" fill="#143D30"/>
<path d="M946.07 185.978H966.724V48.3454L946.07 37.9575V185.978Z" fill="#143D30"/>
<path d="M973.035 185.978H1000V48.3454L973.035 37.9575V185.978Z" fill="#143D30"/>
<path d="M764.969 185.886H754.642V41.3081H764.969V185.886Z" fill="#143D30"/>
<path d="M779.84 185.886H769.513V41.3081H779.84V185.886Z" fill="#143D30"/>
<path d="M765.015 41.3081H760.425V-1.43051e-06H765.015V41.3081Z" fill="#143D30"/>
<path d="M774.102 41.3081H769.513V-1.43051e-06H774.102V41.3081Z" fill="#143D30"/>
<path d="M269.65 302H260.471V12.8434H269.65V302Z" fill="#F05A28"/>
</svg>
